<?xml version="1.0" standalone="no"?><!-- Generator: Adobe Fireworks CS6, Export SVG Extension by Aaron Beall (http://fireworks.abeall.com) . Version: 0.6.1  --><!DOCTYPE svg PUBLIC "-//W3C//DTD SVG 1.1//EN" "http://www.w3.org/Graphics/SVG/1.1/DTD/svg11.dtd"><svg id="Untitled-Page%201" viewBox="0 0 15 15" style="background-color:#ffffff00" version="1.1"	xmlns="http://www.w3.org/2000/svg" xmlns:xlink="http://www.w3.org/1999/xlink" xml:space="preserve"	x="0px" y="0px" width="15px" height="15px">	<g id="Layer%201">		<path d="M 14.2298 7.3843 C 15.8855 5.748 15.8855 3.0935 14.2298 1.4573 C 12.5741 -0.179 9.8878 -0.179 8.232 1.4573 L 6.2328 3.4329 C 6.1192 3.5449 6.0143 3.6611 5.9167 3.7825 C 6.5137 3.7502 7.1136 3.8093 7.6949 3.9636 L 9.2318 2.4451 C 10.3364 1.3535 12.1345 1.3618 13.238 2.4524 C 14.3426 3.5439 14.335 5.3049 13.2303 6.3965 L 11.2312 8.3721 C 10.9975 8.603 10.7324 8.7856 10.449 8.918 C 10.0115 9.1252 9.5291 9.2144 9.0556 9.186 C 8.8987 9.1763 8.7427 9.1555 8.5888 9.1201 C 8.0919 9.0054 7.6197 8.7549 7.2323 8.3721 C 6.7388 7.8845 5.9666 7.8325 5.4141 8.22 C 5.6142 8.6328 5.8878 9.0193 6.2327 9.3599 C 6.5775 9.7007 6.9685 9.9712 7.3859 10.1689 C 7.8297 10.3823 8.3044 10.5134 8.7843 10.5627 C 9.2489 10.6123 9.7183 10.5847 10.1743 10.48 L 10.3271 10.4429 C 10.8809 10.2986 11.4097 10.0425 11.8767 9.6721 C 11.9995 9.5762 12.1169 9.4724 12.2306 9.3599 L 14.2298 7.3843 ZM 5.6731 6.6201 C 5.9154 6.5715 6.1636 6.5552 6.4089 6.5701 C 7.0722 6.6111 7.7245 6.8826 8.2318 7.3838 C 8.7255 7.8716 9.4976 7.9236 10.05 7.5359 C 9.8499 7.1235 9.5761 6.7371 9.2314 6.3962 C 8.8867 6.0554 8.4956 5.7849 8.0782 5.5874 C 7.6346 5.374 7.1597 5.2429 6.6799 5.1936 C 6.1637 5.1379 5.6389 5.1772 5.1366 5.3132 C 4.8983 5.3755 4.6639 5.4561 4.4378 5.5601 C 4.1385 5.6973 3.8532 5.873 3.587 6.084 C 3.4645 6.1802 3.3472 6.2837 3.2335 6.3965 L 1.2343 8.3721 C -0.4214 10.0083 -0.4064 12.678 1.2492 14.314 C 2.9062 15.9517 5.5765 15.9355 7.2321 14.2993 L 9.2314 12.3235 C 9.3453 12.2112 9.4503 12.0952 9.5476 11.9744 C 8.9515 12.0049 8.3493 11.9456 7.7694 11.7925 L 6.2325 13.3113 C 5.128 14.4028 3.3386 14.4028 2.2339 13.3113 C 1.1295 12.22 1.1295 10.4517 2.2339 9.3599 L 4.2336 7.3838 C 4.4671 7.1528 4.7319 6.9705 5.0156 6.8384 C 5.2265 6.7383 5.4473 6.665 5.6731 6.6201 Z" fill="#65c192"/>	</g></svg>