<?xml version="1.0" standalone="no"?><!-- Generator: Adobe Fireworks CS6, Export SVG Extension by Aaron Beall (http://fireworks.abeall.com) . Version: 0.6.1  --><!DOCTYPE svg PUBLIC "-//W3C//DTD SVG 1.1//EN" "http://www.w3.org/Graphics/SVG/1.1/DTD/svg11.dtd"><svg id="Untitled-Page%201" viewBox="0 0 24 26" style="background-color:#ffffff00" version="1.1"	xmlns="http://www.w3.org/2000/svg" xmlns:xlink="http://www.w3.org/1999/xlink" xml:space="preserve"	x="0px" y="0px" width="24px" height="26px">	<g id="Layer%201">		<g>			<g>				<path d="M 19.8608 21.2525 C 22.391 19.0327 24 15.7642 24 12.112 C 24 5.4241 18.6251 0 11.998 0 C 5.373 0 0 5.4241 0 12.112 C 0 18.8029 5.373 24.227 11.998 24.227 C 13.6553 24.227 15.2335 23.8862 16.6688 23.2719 L 21.3096 26 L 19.8608 21.2525 Z" fill="#d7793d"/>			</g>			<path d="M 12.7251 19 C 10.9362 19 10.0391 18.0798 10.0391 16.9885 C 10.0391 15.9185 10.9362 15 12.0275 15 C 13.1189 15 14.0391 15.9185 14.0391 16.9885 C 14.0391 18.0798 13.1189 19 12.0275 19 L 12.7251 19 L 12.7251 19 Z" fill="#ffffff"/>			<path d="M 11.1016 13.939 L 10.0391 6.0625 L 14.0391 6.0625 L 12.9766 13.939 L 11.1016 13.939 L 11.1016 13.939 Z" fill="#ffffff"/>		</g>	</g></svg>