<?xml version="1.0" standalone="no"?><!-- Generator: Adobe Fireworks CS6, Export SVG Extension by Aaron Beall (http://fireworks.abeall.com) . Version: 0.6.1  --><!DOCTYPE svg PUBLIC "-//W3C//DTD SVG 1.1//EN" "http://www.w3.org/Graphics/SVG/1.1/DTD/svg11.dtd"><svg id="Untitled-Page%201" viewBox="0 0 20 20" style="background-color:#ffffff00" version="1.1"	xmlns="http://www.w3.org/2000/svg" xmlns:xlink="http://www.w3.org/1999/xlink" xml:space="preserve"	x="0px" y="0px" width="20px" height="20px">	<g id="Layer%201">		<g>			<g>				<path d="M 18.3167 15.5556 L 1.6833 15.5556 C 3.4773 18.2355 6.5327 20 10 20 C 13.4673 20 16.5227 18.2355 18.3167 15.5556 ZM 0.5667 6.6667 L 19.4333 6.6667 C 18.0605 2.7827 14.3542 0 10 0 C 5.6458 0 1.9395 2.7827 0.5667 6.6667 Z" fill="#df3434"/>				<path d="M 1.6833 15.5556 L 18.3167 15.5556 C 19.3804 13.9666 20 12.0557 20 10 C 20 8.8312 19.8018 7.7092 19.4333 6.6667 L 0.5667 6.6667 C 0.1982 7.7092 0 8.8312 0 10 C 0 12.0557 0.6196 13.9666 1.6833 15.5556 Z" fill="#ffc20e"/>			</g>			<path id="Ellipse" d="M 2.2222 11.1111 C 2.2222 9.2702 3.7146 7.7778 5.5555 7.7778 C 7.3965 7.7778 8.8889 9.2702 8.8889 11.1111 C 8.8889 12.9521 7.3965 14.4444 5.5555 14.4444 C 3.7146 14.4444 2.2222 12.9521 2.2222 11.1111 Z" fill="#643c31"/>			<path id="Ellipse2" d="M 4.8889 10.4444 C 4.8889 9.7081 5.4858 9.1111 6.2222 9.1111 C 6.9585 9.1111 7.5557 9.7081 7.5557 10.4444 C 7.5557 11.1808 6.9585 11.7778 6.2222 11.7778 C 5.4858 11.7778 4.8889 11.1808 4.8889 10.4444 Z" fill="#c6ab61"/>		</g>	</g></svg>